<svg viewBox="0 0 180 180" xmlns="http://www.w3.org/2000/svg" role="img" aria-label="FlowPay">
  <defs>
    <filter id="glow" x="-40%" y="-40%" width="180%" height="180%">
      <feGaussianBlur in="SourceGraphic" stdDeviation="8" result="blur"/>
      <feMerge>
        <feMergeNode in="blur"/>
        <feMergeNode in="SourceGraphic"/>
      </feMerge>
    </filter>
  </defs>

  <rect width="180" height="180" rx="38" fill="#080808"/>
  <rect x="2" y="2" width="176" height="176" rx="36" fill="none" stroke="#CFFF03" stroke-opacity="0.2" stroke-width="1.5"/>

  <path
    d="M 90 90 C 84 56 20 56 20 90 C 20 124 84 124 90 90 C 96 56 160 56 160 90 C 160 124 96 124 90 90 Z"
    fill="none" stroke="#CFFF03" stroke-width="22" stroke-linecap="round" stroke-linejoin="round"
    stroke-opacity="0.22" filter="url(#glow)"
  />
  <path
    d="M 90 90 C 84 56 20 56 20 90 C 20 124 84 124 90 90 C 96 56 160 56 160 90 C 160 124 96 124 90 90 Z"
    fill="none" stroke="#CFFF03" stroke-width="11" stroke-linecap="round" stroke-linejoin="round"
  />
</svg>
